<svg xmlns="http://www.w3.org/2000/svg" xmlns:xlink="http://www.w3.org/1999/xlink" width="1080" zoomAndPan="magnify" viewBox="0 0 810 809.999993" height="1080" preserveAspectRatio="xMidYMid meet" version="1.0"><defs><g/><clipPath id="9122ea27cd"><path d="M 359.417969 175.453125 L 612.09375 175.453125 L 612.09375 430 L 359.417969 430 Z M 359.417969 175.453125 " clip-rule="nonzero"/></clipPath><clipPath id="a72a08a8e1"><path d="M 610.175781 329.464844 L 496.285156 329.464844 C 507.625 340.558594 519.175781 351.828125 530.390625 362.765625 L 597.777344 362.765625 C 595.710938 366.582031 593.433594 370.289062 590.992188 373.859375 L 541.796875 373.859375 L 541.839844 373.949219 L 541.863281 373.960938 L 567.933594 399.328125 C 545.871094 417.929688 517.367188 429.136719 486.261719 429.136719 C 416.210938 429.136719 359.417969 372.34375 359.417969 302.300781 C 359.417969 232.257812 416.210938 175.453125 486.261719 175.453125 C 533.929688 175.453125 575.464844 201.757812 597.128906 240.652344 L 406.746094 240.652344 C 413.867188 248.039062 425.539062 259.757812 439.859375 273.964844 L 609.917969 273.964844 C 610.753906 277.601562 611.425781 281.296875 611.925781 285.046875 L 451.085938 285.046875 C 461.589844 295.414062 473.070312 306.707031 484.945312 318.359375 L 612.09375 318.359375 C 611.613281 322.121094 610.980469 325.816406 610.175781 329.464844 " clip-rule="nonzero"/></clipPath><clipPath id="607effa071"><path d="M 167 462 L 212.625 462 L 212.625 588.460938 L 167 588.460938 Z M 167 462 " clip-rule="nonzero"/></clipPath><clipPath id="c1d65541b4"><path d="M 187.066406 462.042969 L 167.089844 588.410156 L 192.359375 588.410156 L 212.34375 462.042969 Z M 187.066406 462.042969 " clip-rule="nonzero"/></clipPath><clipPath id="28fa2914d0"><path d="M 199.542969 462 L 340.203125 462 L 340.203125 588.460938 L 199.542969 588.460938 Z M 199.542969 462 " clip-rule="nonzero"/></clipPath><clipPath id="fff31ea868"><path d="M 304.285156 490.957031 L 272.957031 558.519531 L 258.785156 462.042969 L 235.046875 462.042969 L 199.699219 588.410156 L 224.800781 588.410156 L 246.664062 508.144531 L 256.226562 588.410156 L 279.953125 588.410156 L 315.132812 507.128906 L 311.714844 588.410156 L 336.132812 588.410156 L 340.085938 490.957031 Z M 304.285156 490.957031 " clip-rule="nonzero"/></clipPath><clipPath id="3352d17f48"><path d="M 307 462 L 448.695312 462 L 448.695312 588.460938 L 307 588.460938 Z M 307 462 " clip-rule="nonzero"/></clipPath><clipPath id="d377a6a629"><path d="M 422.28125 501.75 L 421.6875 506.4375 C 420.996094 510.765625 419.835938 514.40625 418.183594 517.375 C 416.53125 520.332031 414.457031 522.550781 411.945312 524.023438 C 409.445312 525.507812 406.601562 526.246094 403.410156 526.246094 L 380.015625 526.246094 L 386.824219 484.753906 L 410.417969 484.753906 C 414.277344 484.753906 417.269531 485.777344 419.378906 487.832031 C 421.488281 489.875 422.539062 493.402344 422.539062 498.414062 C 422.539062 499.09375 422.449219 500.210938 422.28125 501.75 M 443.886719 475.367188 C 440.917969 470.46875 436.96875 467.019531 432.011719 465.03125 C 427.066406 463.046875 421.453125 462.042969 415.195312 462.042969 L 317.386719 462.042969 L 307.296875 484.753906 L 361.523438 484.753906 L 344.839844 588.410156 L 370.117188 588.410156 L 376.949219 546.054688 C 380.363281 546.734375 384.828125 547.394531 390.351562 548.019531 C 395.875 548.644531 401.367188 548.957031 406.824219 548.957031 C 411.042969 548.957031 415.28125 548.308594 419.546875 546.992188 C 423.820312 545.6875 427.804688 543.523438 431.5 540.507812 C 435.203125 537.496094 438.382812 533.421875 441.0625 528.300781 C 443.742188 523.175781 445.648438 516.804688 446.789062 509.171875 C 447.125 507.128906 447.46875 504.816406 447.816406 502.25 C 448.148438 499.695312 448.328125 497.5625 448.328125 495.855469 C 448.328125 487.085938 446.84375 480.253906 443.886719 475.367188 " clip-rule="nonzero"/></clipPath><clipPath id="b7bdae29fe"><path d="M 418.164062 461 L 526 461 L 526 589.550781 L 418.164062 589.550781 Z M 418.164062 461 " clip-rule="nonzero"/></clipPath><clipPath id="cc275d34e0"><path d="M 522.65625 481.683594 C 520.492188 476.214844 517.445312 471.972656 513.527344 468.960938 C 509.597656 465.945312 504.988281 463.871094 499.6875 462.722656 C 494.398438 461.59375 488.617188 461.015625 482.355469 461.015625 C 473.136719 461.015625 465.078125 461.984375 458.195312 463.925781 C 455.011719 464.808594 452.042969 465.980469 449.289062 467.453125 L 451.519531 470.734375 C 454.855469 476.257812 456.722656 483.15625 457.144531 491.738281 C 459.601562 488.871094 462.578125 486.828125 466.050781 485.613281 C 469.632812 484.363281 473.820312 483.726562 478.605469 483.726562 C 483.605469 483.726562 487.710938 484.238281 490.894531 485.265625 C 494.085938 486.292969 496.472656 488.167969 498.070312 490.902344 C 499.664062 493.636719 500.457031 497.730469 500.457031 503.199219 C 500.457031 505.921875 500.222656 509.371094 499.777344 513.523438 C 499.320312 517.6875 498.75 522.09375 498.070312 526.757812 C 496.929688 534.160156 495.535156 540.398438 493.882812 545.464844 C 492.234375 550.53125 490.179688 554.625 487.734375 557.75 C 485.292969 560.886719 482.277344 563.128906 478.683594 564.492188 C 475.101562 565.863281 470.804688 566.546875 465.792969 566.546875 C 460.558594 566.546875 456.285156 566.03125 452.980469 565.003906 C 449.679688 563.980469 447.269531 562.136719 445.726562 559.457031 C 444.1875 556.792969 443.429688 552.996094 443.429688 548.109375 C 443.429688 546.011719 443.574219 543.476562 443.863281 540.476562 C 441.8125 543.140625 439.554688 545.464844 437.132812 547.4375 C 432.558594 551.167969 427.515625 553.890625 422.15625 555.53125 L 418.429688 556.535156 C 418.867188 561.691406 419.792969 566.078125 421.230469 569.703125 C 423.273438 574.882812 426.230469 578.921875 430.105469 581.824219 C 433.976562 584.726562 438.585938 586.722656 443.941406 587.804688 C 449.289062 588.886719 455.203125 589.425781 461.699219 589.425781 C 470.917969 589.425781 478.941406 588.597656 485.769531 586.957031 C 492.601562 585.316406 498.460938 582.371094 503.359375 578.164062 C 508.257812 573.957031 512.320312 567.972656 515.570312 560.230469 C 518.816406 552.484375 521.351562 542.472656 523.167969 530.175781 L 525.222656 515.488281 C 525.667969 510.710938 525.902344 506.503906 525.902344 502.855469 C 525.902344 494.203125 524.820312 487.140625 522.65625 481.683594 " clip-rule="nonzero"/></clipPath><clipPath id="fd9d8b9df2"><path d="M 517.933594 462 L 620.429688 462 L 620.429688 588.460938 L 517.933594 588.460938 Z M 517.933594 462 " clip-rule="nonzero"/></clipPath><clipPath id="4e4efaaa7e"><path d="M 594.371094 499.695312 L 593.945312 502.6875 C 593.253906 507.464844 592.148438 511.191406 590.609375 513.871094 C 589.070312 516.546875 587.050781 518.457031 584.550781 519.582031 C 582.050781 520.734375 578.914062 521.289062 575.152344 521.289062 L 553.816406 521.289062 L 559.617188 484.753906 L 581.136719 484.753906 C 583.871094 484.753906 586.222656 485.152344 588.222656 485.945312 C 590.207031 486.75 591.75 488.023438 592.832031 489.796875 C 593.914062 491.558594 594.460938 493.96875 594.460938 497.050781 L 594.371094 499.695312 M 618.019531 478.78125 C 616.421875 474.796875 614.113281 471.582031 611.101562 469.128906 C 608.085938 466.671875 604.472656 464.886719 600.265625 463.75 C 596.046875 462.609375 591.378906 462.042969 586.257812 462.042969 L 537.933594 462.042969 L 517.957031 588.410156 L 543.222656 588.410156 L 550.746094 541.277344 C 552.21875 541.277344 553.835938 541.300781 555.613281 541.355469 L 561.070312 541.445312 L 571.234375 541.445312 L 584.035156 588.410156 L 609.816406 588.410156 L 594.460938 537.519531 C 596.28125 536.726562 598.433594 535.699219 600.945312 534.449219 C 603.445312 533.199219 605.957031 531.367188 608.457031 528.980469 C 610.957031 526.59375 613.210938 523.398438 615.207031 519.414062 C 617.203125 515.433594 618.589844 510.421875 619.382812 504.394531 L 620.152344 498.589844 C 620.328125 496.761719 620.40625 495.054688 620.40625 493.46875 C 620.40625 487.652344 619.617188 482.765625 618.019531 478.78125 " clip-rule="nonzero"/></clipPath><clipPath id="76feb8d306"><path d="M 623.703125 462 L 722 462 L 722 588.460938 L 623.703125 588.460938 Z M 623.703125 462 " clip-rule="nonzero"/></clipPath><clipPath id="0e3357fc88"><path d="M 627.316406 462.042969 L 623.722656 484.753906 L 658.21875 484.753906 L 641.824219 588.410156 L 667.269531 588.410156 L 683.664062 484.753906 L 718.328125 484.753906 L 721.910156 462.042969 Z M 627.316406 462.042969 " clip-rule="nonzero"/></clipPath><clipPath id="73a7ccf020"><path d="M 708 461 L 804.707031 461 L 804.707031 589.550781 L 708 589.550781 Z M 708 461 " clip-rule="nonzero"/></clipPath><clipPath id="d2237c437c"><path d="M 743.628906 500.800781 L 744.308594 496.371094 C 744.878906 493.066406 745.960938 490.5 747.554688 488.679688 C 749.152344 486.863281 751.226562 485.613281 753.785156 484.917969 C 756.351562 484.238281 759.339844 483.902344 762.757812 483.902344 C 766.171875 483.902344 770.121094 483.960938 774.621094 484.070312 L 788.371094 484.496094 C 793.035156 484.675781 797.296875 484.917969 801.171875 485.265625 L 804.417969 465.289062 C 801.226562 464.609375 797.957031 463.984375 794.597656 463.414062 L 784.519531 462.042969 C 781.171875 461.707031 777.890625 461.449219 774.710938 461.269531 L 765.824219 461.015625 C 757.511719 461.015625 750.203125 462.019531 743.882812 464.003906 C 737.566406 466.003906 732.445312 469.382812 728.515625 474.160156 C 724.589844 478.949219 722 485.378906 720.75 493.46875 L 719.042969 503.703125 C 718.695312 506.214844 718.527344 508.601562 718.527344 510.878906 C 718.527344 518.957031 721.140625 525.421875 726.386719 530.261719 C 731.621094 535.097656 739.074219 537.519531 748.75 537.519531 L 758.828125 537.519531 C 763.839844 537.519531 767.476562 538.199219 769.753906 539.570312 C 772.03125 540.945312 773.167969 543.210938 773.167969 546.402344 L 773.136719 547.507812 C 773.023438 548.53125 772.933594 549.136719 772.824219 549.816406 L 772.140625 554.246094 C 771.574219 557.550781 770.433594 560.117188 768.726562 561.9375 C 767.019531 563.753906 764.542969 565.003906 761.304688 565.699219 C 758.058594 566.378906 754.039062 566.710938 749.265625 566.710938 L 729.109375 566.289062 C 722.277344 566.011719 716.308594 565.699219 711.183594 565.351562 L 708.105469 585.328125 C 711.183594 586.007812 714.800781 586.667969 718.953125 587.292969 C 723.105469 587.917969 727.769531 588.429688 732.957031 588.832031 C 738.136719 589.222656 743.738281 589.425781 749.777344 589.425781 C 759.675781 589.425781 767.789062 588.351562 774.105469 586.1875 C 780.421875 584.023438 785.289062 580.695312 788.703125 576.199219 C 792.117188 571.703125 794.394531 565.921875 795.535156 558.867188 L 797.242188 547.082031 C 797.585938 544.582031 797.753906 542.292969 797.753906 540.253906 C 797.753906 532.285156 795.054688 525.855469 789.640625 520.957031 C 784.238281 516.058594 776.183594 513.613281 765.480469 513.613281 L 754.722656 513.613281 C 750.859375 513.613281 747.980469 512.898438 746.105469 511.480469 C 744.230469 510.050781 743.28125 507.753906 743.28125 504.5625 L 743.316406 503.402344 C 743.425781 502.140625 743.515625 501.492188 743.628906 500.800781 " clip-rule="nonzero"/></clipPath><clipPath id="23d3ee9229"><path d="M 108 563 L 161 563 L 161 588.460938 L 108 588.460938 Z M 108 563 " clip-rule="nonzero"/></clipPath><clipPath id="337b6fbde7"><path d="M 134.011719 588.410156 L 156.992188 588.410156 L 160.984375 563.128906 L 108.132812 563.21875 Z M 134.011719 588.410156 " clip-rule="nonzero"/></clipPath><clipPath id="0e4a40a022"><path d="M 73.054688 529.035156 L 166.828125 529.035156 L 166.828125 555 L 73.054688 555 Z M 73.054688 529.035156 " clip-rule="nonzero"/></clipPath><clipPath id="d20c292401"><path d="M 166.308594 529.4375 L 162.3125 554.714844 L 99.414062 554.714844 C 90.898438 546.414062 82.140625 537.863281 73.535156 529.4375 Z M 166.308594 529.4375 " clip-rule="nonzero"/></clipPath><clipPath id="dda93447eb"><path d="M 39 495.234375 L 171.734375 495.234375 L 171.734375 521.402344 L 39 521.402344 Z M 39 495.234375 " clip-rule="nonzero"/></clipPath><clipPath id="151eb664b9"><path d="M 171.644531 495.734375 L 167.648438 521.011719 L 64.929688 521.011719 C 55.914062 512.171875 47.195312 503.601562 39.226562 495.734375 Z M 171.644531 495.734375 " clip-rule="nonzero"/></clipPath><clipPath id="98b018b4e3"><path d="M 5.453125 462 L 177 462 L 177 487.601562 L 5.453125 487.601562 Z M 5.453125 462 " clip-rule="nonzero"/></clipPath><clipPath id="3cd63a6d2f"><path d="M 176.96875 462.042969 L 172.972656 487.320312 L 30.714844 487.320312 C 19.84375 476.539062 10.980469 467.644531 5.582031 462.042969 Z M 176.96875 462.042969 " clip-rule="nonzero"/></clipPath></defs><rect x="-81" width="972" fill="#ffffff" y="-80.999999" height="971.999992" fill-opacity="1"/><rect x="-81" width="972" fill="#ffffff" y="-80.999999" height="971.999992" fill-opacity="1"/><g clip-path="url(#9122ea27cd)"><g clip-path="url(#a72a08a8e1)"><path fill="#d11818" d="M 359.417969 175.453125 L 612.09375 175.453125 L 612.09375 429.117188 L 359.417969 429.117188 Z M 359.417969 175.453125 " fill-opacity="1" fill-rule="nonzero"/></g></g><g clip-path="url(#607effa071)"><g clip-path="url(#c1d65541b4)"><path fill="#282828" d="M 0 455.433594 L 810.160156 455.433594 L 810.160156 595.003906 L 0 595.003906 Z M 0 455.433594 " fill-opacity="1" fill-rule="nonzero"/></g></g><g clip-path="url(#28fa2914d0)"><g clip-path="url(#fff31ea868)"><path fill="#282828" d="M 0 455.433594 L 810.160156 455.433594 L 810.160156 595.003906 L 0 595.003906 Z M 0 455.433594 " fill-opacity="1" fill-rule="nonzero"/></g></g><g clip-path="url(#3352d17f48)"><g clip-path="url(#d377a6a629)"><path fill="#282828" d="M 0 455.433594 L 810.160156 455.433594 L 810.160156 595.003906 L 0 595.003906 Z M 0 455.433594 " fill-opacity="1" fill-rule="nonzero"/></g></g><g clip-path="url(#b7bdae29fe)"><g clip-path="url(#cc275d34e0)"><path fill="#282828" d="M 0 455.433594 L 810.160156 455.433594 L 810.160156 595.003906 L 0 595.003906 Z M 0 455.433594 " fill-opacity="1" fill-rule="nonzero"/></g></g><g clip-path="url(#fd9d8b9df2)"><g clip-path="url(#4e4efaaa7e)"><path fill="#282828" d="M 0 455.433594 L 810.160156 455.433594 L 810.160156 595.003906 L 0 595.003906 Z M 0 455.433594 " fill-opacity="1" fill-rule="nonzero"/></g></g><g clip-path="url(#76feb8d306)"><g clip-path="url(#0e3357fc88)"><path fill="#282828" d="M 0 455.433594 L 810.160156 455.433594 L 810.160156 595.003906 L 0 595.003906 Z M 0 455.433594 " fill-opacity="1" fill-rule="nonzero"/></g></g><g clip-path="url(#73a7ccf020)"><g clip-path="url(#d2237c437c)"><path fill="#282828" d="M 0 455.433594 L 810.160156 455.433594 L 810.160156 595.003906 L 0 595.003906 Z M 0 455.433594 " fill-opacity="1" fill-rule="nonzero"/></g></g><g clip-path="url(#23d3ee9229)"><g clip-path="url(#337b6fbde7)"><path fill="#d11818" d="M 0 455.433594 L 810.160156 455.433594 L 810.160156 595.003906 L 0 595.003906 Z M 0 455.433594 " fill-opacity="1" fill-rule="nonzero"/></g></g><g clip-path="url(#0e4a40a022)"><g clip-path="url(#d20c292401)"><path fill="#d11818" d="M 0 455.433594 L 810.160156 455.433594 L 810.160156 595.003906 L 0 595.003906 Z M 0 455.433594 " fill-opacity="1" fill-rule="nonzero"/></g></g><g clip-path="url(#dda93447eb)"><g clip-path="url(#151eb664b9)"><path fill="#d11818" d="M 0 455.433594 L 810.160156 455.433594 L 810.160156 595.003906 L 0 595.003906 Z M 0 455.433594 " fill-opacity="1" fill-rule="nonzero"/></g></g><g clip-path="url(#98b018b4e3)"><g clip-path="url(#3cd63a6d2f)"><path fill="#d11818" d="M 0 455.433594 L 810.160156 455.433594 L 810.160156 595.003906 L 0 595.003906 Z M 0 455.433594 " fill-opacity="1" fill-rule="nonzero"/></g></g><g fill="#000000" fill-opacity="1"><g transform="translate(126.082615, 628.039187)"><g><path d="M 19.4375 -13.109375 C 19.4375 -10.515625 18.910156 -8.21875 17.859375 -6.21875 C 16.816406 -4.226562 15.320312 -2.691406 13.375 -1.609375 C 11.4375 -0.535156 9.160156 0 6.546875 0 L 1.28125 0 L 5.90625 -21.859375 L 11.015625 -21.859375 C 13.765625 -21.859375 15.851562 -21.113281 17.28125 -19.625 C 18.71875 -18.132812 19.4375 -15.960938 19.4375 -13.109375 Z M 6.71875 -2.203125 C 8.726562 -2.203125 10.492188 -2.65625 12.015625 -3.5625 C 13.546875 -4.476562 14.71875 -5.765625 15.53125 -7.421875 C 16.34375 -9.085938 16.75 -10.992188 16.75 -13.140625 C 16.75 -15.285156 16.234375 -16.90625 15.203125 -18 C 14.179688 -19.101562 12.675781 -19.65625 10.6875 -19.65625 L 8.03125 -19.65625 L 4.296875 -2.203125 Z M 6.71875 -2.203125 "/></g></g></g><g fill="#000000" fill-opacity="1"><g transform="translate(158.083962, 628.039187)"><g><path d="M 1.28125 0 L 5.9375 -21.859375 L 8.453125 -21.859375 L 3.796875 0 Z M 1.28125 0 "/></g></g></g><g fill="#000000" fill-opacity="1"><g transform="translate(178.049279, 628.039187)"><g><path d="M 13.65625 -6.34375 C 13.65625 -4.238281 12.953125 -2.601562 11.546875 -1.4375 C 10.148438 -0.28125 8.179688 0.296875 5.640625 0.296875 C 4.578125 0.296875 3.644531 0.222656 2.84375 0.078125 C 2.039062 -0.0664062 1.285156 -0.304688 0.578125 -0.640625 L 0.578125 -3.1875 C 2.191406 -2.34375 3.890625 -1.921875 5.671875 -1.921875 C 7.285156 -1.921875 8.566406 -2.296875 9.515625 -3.046875 C 10.460938 -3.804688 10.9375 -4.84375 10.9375 -6.15625 C 10.9375 -6.9375 10.671875 -7.625 10.140625 -8.21875 C 9.617188 -8.8125 8.644531 -9.507812 7.21875 -10.3125 C 5.71875 -11.164062 4.675781 -12.015625 4.09375 -12.859375 C 3.507812 -13.703125 3.21875 -14.703125 3.21875 -15.859375 C 3.21875 -17.722656 3.875 -19.238281 5.1875 -20.40625 C 6.5 -21.582031 8.226562 -22.171875 10.375 -22.171875 C 11.363281 -22.171875 12.285156 -22.078125 13.140625 -21.890625 C 13.992188 -21.703125 14.890625 -21.378906 15.828125 -20.921875 L 14.84375 -18.671875 C 14.1875 -19.054688 13.445312 -19.359375 12.625 -19.578125 C 11.8125 -19.796875 11.0625 -19.90625 10.375 -19.90625 C 9.039062 -19.90625 7.96875 -19.554688 7.15625 -18.859375 C 6.34375 -18.171875 5.9375 -17.234375 5.9375 -16.046875 C 5.9375 -15.503906 6.019531 -15.039062 6.1875 -14.65625 C 6.351562 -14.28125 6.617188 -13.921875 6.984375 -13.578125 C 7.359375 -13.234375 8.070312 -12.757812 9.125 -12.15625 C 10.582031 -11.28125 11.566406 -10.59375 12.078125 -10.09375 C 12.597656 -9.59375 12.988281 -9.039062 13.25 -8.4375 C 13.519531 -7.832031 13.65625 -7.132812 13.65625 -6.34375 Z M 13.65625 -6.34375 "/></g></g></g><g fill="#000000" fill-opacity="1"><g transform="translate(205.026896, 628.039187)"><g><path d="M 7.28125 0 L 4.703125 0 L 8.859375 -19.609375 L 2.78125 -19.609375 L 3.28125 -21.859375 L 18 -21.859375 L 17.5625 -19.609375 L 11.453125 -19.609375 Z M 7.28125 0 "/></g></g></g><g fill="#000000" fill-opacity="1"><g transform="translate(231.884891, 628.039187)"><g><path d="M 5.75 -9.09375 L 3.828125 0 L 1.28125 0 L 5.90625 -21.859375 L 10.6875 -21.859375 C 15.132812 -21.859375 17.359375 -20.035156 17.359375 -16.390625 C 17.359375 -12.921875 15.523438 -10.679688 11.859375 -9.671875 L 15.4375 0 L 12.65625 0 L 9.53125 -9.09375 Z M 7.953125 -19.640625 C 6.941406 -14.710938 6.363281 -11.925781 6.21875 -11.28125 L 8.734375 -11.28125 C 10.660156 -11.28125 12.140625 -11.703125 13.171875 -12.546875 C 14.210938 -13.390625 14.734375 -14.601562 14.734375 -16.1875 C 14.734375 -17.394531 14.394531 -18.269531 13.71875 -18.8125 C 13.039062 -19.363281 11.945312 -19.640625 10.4375 -19.640625 Z M 7.953125 -19.640625 "/></g></g></g><g fill="#000000" fill-opacity="1"><g transform="translate(260.910868, 628.039187)"><g><path d="M 1.28125 0 L 5.9375 -21.859375 L 8.453125 -21.859375 L 3.796875 0 Z M 1.28125 0 "/></g></g></g><g fill="#000000" fill-opacity="1"><g transform="translate(280.87618, 628.039187)"><g><path d="M 11.515625 -21.859375 C 15.816406 -21.859375 17.96875 -20.1875 17.96875 -16.84375 C 17.96875 -15.4375 17.535156 -14.25 16.671875 -13.28125 C 15.804688 -12.3125 14.585938 -11.679688 13.015625 -11.390625 L 13.015625 -11.25 C 14.160156 -10.925781 15.035156 -10.375 15.640625 -9.59375 C 16.253906 -8.8125 16.5625 -7.875 16.5625 -6.78125 C 16.5625 -4.664062 15.800781 -3.003906 14.28125 -1.796875 C 12.769531 -0.597656 10.742188 0 8.203125 0 L 1.28125 0 L 5.90625 -21.859375 Z M 6.484375 -12.5 L 10.203125 -12.5 C 11.753906 -12.5 12.992188 -12.863281 13.921875 -13.59375 C 14.847656 -14.320312 15.3125 -15.3125 15.3125 -16.5625 C 15.3125 -17.601562 14.976562 -18.378906 14.3125 -18.890625 C 13.65625 -19.398438 12.613281 -19.65625 11.1875 -19.65625 L 8.03125 -19.65625 Z M 4.296875 -2.171875 L 8.265625 -2.171875 C 10.066406 -2.171875 11.453125 -2.570312 12.421875 -3.375 C 13.390625 -4.175781 13.875 -5.3125 13.875 -6.78125 C 13.875 -7.9375 13.503906 -8.816406 12.765625 -9.421875 C 12.023438 -10.035156 10.957031 -10.34375 9.5625 -10.34375 L 6.03125 -10.34375 Z M 4.296875 -2.171875 "/></g></g></g><g fill="#000000" fill-opacity="1"><g transform="translate(310.799252, 628.039187)"><g><path d="M 21.046875 -21.859375 L 17.96875 -7.421875 C 17.425781 -4.796875 16.441406 -2.851562 15.015625 -1.59375 C 13.597656 -0.332031 11.664062 0.296875 9.21875 0.296875 C 6.914062 0.296875 5.210938 -0.21875 4.109375 -1.25 C 3.003906 -2.289062 2.453125 -3.785156 2.453125 -5.734375 C 2.453125 -6.535156 2.570312 -7.535156 2.8125 -8.734375 L 5.640625 -21.859375 L 8.171875 -21.859375 L 5.328125 -8.53125 C 5.109375 -7.476562 5 -6.546875 5 -5.734375 C 5 -4.566406 5.359375 -3.644531 6.078125 -2.96875 C 6.804688 -2.289062 7.894531 -1.953125 9.34375 -1.953125 C 11.0625 -1.953125 12.394531 -2.390625 13.34375 -3.265625 C 14.300781 -4.140625 15 -5.582031 15.4375 -7.59375 L 18.5 -21.859375 Z M 21.046875 -21.859375 "/></g></g></g><g fill="#000000" fill-opacity="1"><g transform="translate(343.099626, 628.039187)"><g><path d="M 1.28125 0 L 5.9375 -21.859375 L 8.453125 -21.859375 L 3.796875 0 Z M 1.28125 0 "/></g></g></g><g fill="#000000" fill-opacity="1"><g transform="translate(363.064938, 628.039187)"><g><path d="M 19.4375 -13.109375 C 19.4375 -10.515625 18.910156 -8.21875 17.859375 -6.21875 C 16.816406 -4.226562 15.320312 -2.691406 13.375 -1.609375 C 11.4375 -0.535156 9.160156 0 6.546875 0 L 1.28125 0 L 5.90625 -21.859375 L 11.015625 -21.859375 C 13.765625 -21.859375 15.851562 -21.113281 17.28125 -19.625 C 18.71875 -18.132812 19.4375 -15.960938 19.4375 -13.109375 Z M 6.71875 -2.203125 C 8.726562 -2.203125 10.492188 -2.65625 12.015625 -3.5625 C 13.546875 -4.476562 14.71875 -5.765625 15.53125 -7.421875 C 16.34375 -9.085938 16.75 -10.992188 16.75 -13.140625 C 16.75 -15.285156 16.234375 -16.90625 15.203125 -18 C 14.179688 -19.101562 12.675781 -19.65625 10.6875 -19.65625 L 8.03125 -19.65625 L 4.296875 -2.203125 Z M 6.71875 -2.203125 "/></g></g></g><g fill="#000000" fill-opacity="1"><g transform="translate(395.066281, 628.039187)"><g><path d="M 21.09375 -13.5625 C 21.09375 -10.882812 20.65625 -8.484375 19.78125 -6.359375 C 18.90625 -4.242188 17.648438 -2.601562 16.015625 -1.4375 C 14.378906 -0.28125 12.488281 0.296875 10.34375 0.296875 C 7.789062 0.296875 5.800781 -0.445312 4.375 -1.9375 C 2.957031 -3.425781 2.25 -5.515625 2.25 -8.203125 C 2.25 -10.835938 2.722656 -13.238281 3.671875 -15.40625 C 4.628906 -17.582031 5.941406 -19.257812 7.609375 -20.4375 C 9.285156 -21.613281 11.171875 -22.203125 13.265625 -22.203125 C 15.691406 -22.203125 17.601562 -21.429688 19 -19.890625 C 20.394531 -18.359375 21.09375 -16.25 21.09375 -13.5625 Z M 13.0625 -19.9375 C 11.5 -19.9375 10.097656 -19.429688 8.859375 -18.421875 C 7.628906 -17.410156 6.671875 -16.007812 5.984375 -14.21875 C 5.304688 -12.425781 4.96875 -10.441406 4.96875 -8.265625 C 4.96875 -6.285156 5.453125 -4.738281 6.421875 -3.625 C 7.398438 -2.507812 8.726562 -1.953125 10.40625 -1.953125 C 11.925781 -1.953125 13.285156 -2.4375 14.484375 -3.40625 C 15.679688 -4.382812 16.628906 -5.78125 17.328125 -7.59375 C 18.023438 -9.40625 18.375 -11.414062 18.375 -13.625 C 18.375 -15.601562 17.90625 -17.148438 16.96875 -18.265625 C 16.03125 -19.378906 14.726562 -19.9375 13.0625 -19.9375 Z M 13.0625 -19.9375 "/></g></g></g><g fill="#000000" fill-opacity="1"><g transform="translate(428.727267, 628.039187)"><g><path d="M 5.75 -9.09375 L 3.828125 0 L 1.28125 0 L 5.90625 -21.859375 L 10.6875 -21.859375 C 15.132812 -21.859375 17.359375 -20.035156 17.359375 -16.390625 C 17.359375 -12.921875 15.523438 -10.679688 11.859375 -9.671875 L 15.4375 0 L 12.65625 0 L 9.53125 -9.09375 Z M 7.953125 -19.640625 C 6.941406 -14.710938 6.363281 -11.925781 6.21875 -11.28125 L 8.734375 -11.28125 C 10.660156 -11.28125 12.140625 -11.703125 13.171875 -12.546875 C 14.210938 -13.390625 14.734375 -14.601562 14.734375 -16.1875 C 14.734375 -17.394531 14.394531 -18.269531 13.71875 -18.8125 C 13.039062 -19.363281 11.945312 -19.640625 10.4375 -19.640625 Z M 7.953125 -19.640625 "/></g></g></g><g fill="#000000" fill-opacity="1"><g transform="translate(457.753244, 628.039187)"><g><path d="M 12.15625 -6.953125 L 4.734375 -6.953125 L 1.078125 0 L -1.75 0 L 10.203125 -21.859375 L 12.796875 -21.859375 L 15.546875 0 L 13.015625 0 Z M 11.890625 -9.28125 L 11.359375 -13.75 C 11.117188 -15.539062 10.976562 -17.285156 10.9375 -18.984375 C 10.5625 -18.109375 10.15625 -17.238281 9.71875 -16.375 C 9.289062 -15.507812 8.050781 -13.144531 6 -9.28125 Z M 11.890625 -9.28125 "/></g></g></g><g fill="#000000" fill-opacity="1"><g transform="translate(486.360576, 628.039187)"><g/></g></g><g fill="#000000" fill-opacity="1"><g transform="translate(505.922196, 628.039187)"><g><path d="M 12.15625 -6.953125 L 4.734375 -6.953125 L 1.078125 0 L -1.75 0 L 10.203125 -21.859375 L 12.796875 -21.859375 L 15.546875 0 L 13.015625 0 Z M 11.890625 -9.28125 L 11.359375 -13.75 C 11.117188 -15.539062 10.976562 -17.285156 10.9375 -18.984375 C 10.5625 -18.109375 10.15625 -17.238281 9.71875 -16.375 C 9.289062 -15.507812 8.050781 -13.144531 6 -9.28125 Z M 11.890625 -9.28125 "/></g></g></g><g fill="#000000" fill-opacity="1"><g transform="translate(534.529528, 628.039187)"><g><path d="M 21.046875 -21.859375 L 17.96875 -7.421875 C 17.425781 -4.796875 16.441406 -2.851562 15.015625 -1.59375 C 13.597656 -0.332031 11.664062 0.296875 9.21875 0.296875 C 6.914062 0.296875 5.210938 -0.21875 4.109375 -1.25 C 3.003906 -2.289062 2.453125 -3.785156 2.453125 -5.734375 C 2.453125 -6.535156 2.570312 -7.535156 2.8125 -8.734375 L 5.640625 -21.859375 L 8.171875 -21.859375 L 5.328125 -8.53125 C 5.109375 -7.476562 5 -6.546875 5 -5.734375 C 5 -4.566406 5.359375 -3.644531 6.078125 -2.96875 C 6.804688 -2.289062 7.894531 -1.953125 9.34375 -1.953125 C 11.0625 -1.953125 12.394531 -2.390625 13.34375 -3.265625 C 14.300781 -4.140625 15 -5.582031 15.4375 -7.59375 L 18.5 -21.859375 Z M 21.046875 -21.859375 "/></g></g></g><g fill="#000000" fill-opacity="1"><g transform="translate(566.829903, 628.039187)"><g><path d="M 7.28125 0 L 4.703125 0 L 8.859375 -19.609375 L 2.78125 -19.609375 L 3.28125 -21.859375 L 18 -21.859375 L 17.5625 -19.609375 L 11.453125 -19.609375 Z M 7.28125 0 "/></g></g></g><g fill="#000000" fill-opacity="1"><g transform="translate(593.687898, 628.039187)"><g><path d="M 21.09375 -13.5625 C 21.09375 -10.882812 20.65625 -8.484375 19.78125 -6.359375 C 18.90625 -4.242188 17.648438 -2.601562 16.015625 -1.4375 C 14.378906 -0.28125 12.488281 0.296875 10.34375 0.296875 C 7.789062 0.296875 5.800781 -0.445312 4.375 -1.9375 C 2.957031 -3.425781 2.25 -5.515625 2.25 -8.203125 C 2.25 -10.835938 2.722656 -13.238281 3.671875 -15.40625 C 4.628906 -17.582031 5.941406 -19.257812 7.609375 -20.4375 C 9.285156 -21.613281 11.171875 -22.203125 13.265625 -22.203125 C 15.691406 -22.203125 17.601562 -21.429688 19 -19.890625 C 20.394531 -18.359375 21.09375 -16.25 21.09375 -13.5625 Z M 13.0625 -19.9375 C 11.5 -19.9375 10.097656 -19.429688 8.859375 -18.421875 C 7.628906 -17.410156 6.671875 -16.007812 5.984375 -14.21875 C 5.304688 -12.425781 4.96875 -10.441406 4.96875 -8.265625 C 4.96875 -6.285156 5.453125 -4.738281 6.421875 -3.625 C 7.398438 -2.507812 8.726562 -1.953125 10.40625 -1.953125 C 11.925781 -1.953125 13.285156 -2.4375 14.484375 -3.40625 C 15.679688 -4.382812 16.628906 -5.78125 17.328125 -7.59375 C 18.023438 -9.40625 18.375 -11.414062 18.375 -13.625 C 18.375 -15.601562 17.90625 -17.148438 16.96875 -18.265625 C 16.03125 -19.378906 14.726562 -19.9375 13.0625 -19.9375 Z M 13.0625 -19.9375 "/></g></g></g><g fill="#000000" fill-opacity="1"><g transform="translate(627.348867, 628.039187)"><g><path d="M 10.109375 0 L 7.625 -19.375 L 7.5 -19.375 C 7.4375 -18.65625 7.296875 -17.671875 7.078125 -16.421875 C 6.867188 -15.171875 6.679688 -14.175781 6.515625 -13.4375 L 3.671875 0 L 1.25 0 L 5.875 -21.859375 L 9.53125 -21.859375 L 11.75 -3.859375 L 11.890625 -3.859375 L 21.75 -21.859375 L 25.71875 -21.859375 L 21.1875 0 L 18.59375 0 C 19.84375 -5.882812 20.800781 -10.398438 21.46875 -13.546875 C 22.132812 -16.691406 22.601562 -18.644531 22.875 -19.40625 L 22.796875 -19.40625 L 12.0625 0 Z M 10.109375 0 "/></g></g></g><g fill="#000000" fill-opacity="1"><g transform="translate(664.583267, 628.039187)"><g><path d="M 21.09375 -13.5625 C 21.09375 -10.882812 20.65625 -8.484375 19.78125 -6.359375 C 18.90625 -4.242188 17.648438 -2.601562 16.015625 -1.4375 C 14.378906 -0.28125 12.488281 0.296875 10.34375 0.296875 C 7.789062 0.296875 5.800781 -0.445312 4.375 -1.9375 C 2.957031 -3.425781 2.25 -5.515625 2.25 -8.203125 C 2.25 -10.835938 2.722656 -13.238281 3.671875 -15.40625 C 4.628906 -17.582031 5.941406 -19.257812 7.609375 -20.4375 C 9.285156 -21.613281 11.171875 -22.203125 13.265625 -22.203125 C 15.691406 -22.203125 17.601562 -21.429688 19 -19.890625 C 20.394531 -18.359375 21.09375 -16.25 21.09375 -13.5625 Z M 13.0625 -19.9375 C 11.5 -19.9375 10.097656 -19.429688 8.859375 -18.421875 C 7.628906 -17.410156 6.671875 -16.007812 5.984375 -14.21875 C 5.304688 -12.425781 4.96875 -10.441406 4.96875 -8.265625 C 4.96875 -6.285156 5.453125 -4.738281 6.421875 -3.625 C 7.398438 -2.507812 8.726562 -1.953125 10.40625 -1.953125 C 11.925781 -1.953125 13.285156 -2.4375 14.484375 -3.40625 C 15.679688 -4.382812 16.628906 -5.78125 17.328125 -7.59375 C 18.023438 -9.40625 18.375 -11.414062 18.375 -13.625 C 18.375 -15.601562 17.90625 -17.148438 16.96875 -18.265625 C 16.03125 -19.378906 14.726562 -19.9375 13.0625 -19.9375 Z M 13.0625 -19.9375 "/></g></g></g><g fill="#000000" fill-opacity="1"><g transform="translate(698.244237, 628.039187)"><g><path d="M 7.28125 0 L 4.703125 0 L 8.859375 -19.609375 L 2.78125 -19.609375 L 3.28125 -21.859375 L 18 -21.859375 L 17.5625 -19.609375 L 11.453125 -19.609375 Z M 7.28125 0 "/></g></g></g><g fill="#000000" fill-opacity="1"><g transform="translate(725.102267, 628.039187)"><g><path d="M 1.28125 0 L 5.9375 -21.859375 L 8.453125 -21.859375 L 3.796875 0 Z M 1.28125 0 "/></g></g></g><g fill="#000000" fill-opacity="1"><g transform="translate(745.067579, 628.039187)"><g><path d="M 7.15625 -2.953125 C 7.769531 -4.378906 8.578125 -6.0625 9.578125 -8 L 16.75 -21.859375 L 19.609375 -21.859375 L 7.921875 0 L 5.234375 0 L 2.8125 -21.859375 L 5.359375 -21.859375 L 6.796875 -7.953125 C 7.003906 -6.003906 7.109375 -4.335938 7.109375 -2.953125 Z M 7.15625 -2.953125 "/></g></g></g><g fill="#000000" fill-opacity="1"><g transform="translate(773.450671, 628.039187)"><g><path d="M 12.15625 -6.953125 L 4.734375 -6.953125 L 1.078125 0 L -1.75 0 L 10.203125 -21.859375 L 12.796875 -21.859375 L 15.546875 0 L 13.015625 0 Z M 11.890625 -9.28125 L 11.359375 -13.75 C 11.117188 -15.539062 10.976562 -17.285156 10.9375 -18.984375 C 10.5625 -18.109375 10.15625 -17.238281 9.71875 -16.375 C 9.289062 -15.507812 8.050781 -13.144531 6 -9.28125 Z M 11.890625 -9.28125 "/></g></g></g></svg>